<svg width="16" height="16" viewBox="0 0 16 16" fill="none" xmlns="http://www.w3.org/2000/svg">
<path id="Vector" d="M15.1873 6.93061C15.0855 6.93061 14.9821 6.93061 14.8786 6.93061C14.5264 6.94762 14.1935 7.09327 13.9458 7.33878C13.5469 6.36735 13.0463 5.26531 12.7326 4.82449C12.5473 4.56429 12.3114 4.34237 12.0384 4.17143C11.8329 4.80064 11.4784 5.37347 11.0038 5.84327L9.30163 7.5102C9.13104 7.67804 8.92823 7.81123 8.70485 7.90212C8.48147 7.993 8.24193 8.03979 8 8.03979C7.75807 8.03979 7.51853 7.993 7.29515 7.90212C7.07177 7.81123 6.86896 7.67804 6.69837 7.5102L4.99625 5.84327C4.52118 5.37254 4.16665 4.79854 3.96162 4.16816C3.68863 4.33914 3.45274 4.56105 3.26742 4.82122C2.95369 5.26204 2.45307 6.36245 2.05423 7.33061C1.80648 7.0851 1.47361 6.93945 1.1214 6.92245C1.01794 6.92245 0.914476 6.92245 0.812683 6.92245C0.598313 6.92785 0.394301 7.0138 0.242979 7.16246C0.0916582 7.31111 0.0046465 7.51106 0 7.72082C0 7.88408 0 8.0751 0 8.30041C0.00679476 8.51621 0.0980152 8.72122 0.254832 8.87313C0.411649 9.02503 0.622091 9.11223 0.84272 9.11673H1.20317H1.25156C1.20929 9.17116 1.16868 9.22558 1.12975 9.28C0.73109 9.87125 0.529387 10.5688 0.552357 11.2767V15.1837C0.552357 15.4002 0.640264 15.6078 0.79674 15.7609C0.953216 15.914 1.16544 16 1.38673 16H2.46642C2.68771 16 2.89993 15.914 3.05641 15.7609C3.21289 15.6078 3.30079 15.4002 3.30079 15.1837V14.5698H12.7009V15.1837C12.7009 15.4002 12.7888 15.6078 12.9453 15.7609C13.1017 15.914 13.314 16 13.5353 16H14.6149C14.8362 16 15.0485 15.914 15.2049 15.7609C15.3614 15.6078 15.4493 15.4002 15.4493 15.1837V11.2767C15.4663 10.5775 15.2642 9.88982 14.8703 9.30612C14.8313 9.24952 14.7907 9.1951 14.7484 9.14286H14.7968H15.1573C15.3779 9.13836 15.5884 9.05115 15.7452 8.89925C15.902 8.74734 15.9932 8.54233 16 8.32653C16 8.10122 16 7.91837 16 7.74694C16.0001 7.53406 15.9152 7.32958 15.7633 7.17708C15.6115 7.02459 15.4048 6.93615 15.1873 6.93061ZM4.86775 11.6914H3.33917C3.16701 11.6914 3.0019 11.6245 2.88016 11.5054C2.75842 11.3863 2.69003 11.2248 2.69003 11.0563V10.6645C2.69008 10.5673 2.71291 10.4715 2.75676 10.3843C2.80061 10.2972 2.86432 10.221 2.94298 10.1617C3.02163 10.1024 3.11315 10.0616 3.21048 10.0423C3.3078 10.023 3.40835 10.0259 3.50438 10.0506L5.03296 10.449C5.18689 10.4872 5.32114 10.5794 5.41031 10.708C5.49947 10.8366 5.53736 10.9927 5.5168 11.1467C5.49624 11.3008 5.41866 11.4422 5.29874 11.5441C5.17883 11.6459 5.02489 11.7013 4.86608 11.6996L4.86775 11.6914ZM13.3116 11.0563C13.3116 11.2248 13.2432 11.3863 13.1215 11.5054C12.9998 11.6245 12.8347 11.6914 12.6625 11.6914H11.1322C10.9734 11.6931 10.8195 11.6378 10.6996 11.5359C10.5797 11.434 10.5021 11.2927 10.4815 11.1386C10.461 10.9845 10.4989 10.8284 10.588 10.6998C10.6772 10.5712 10.8114 10.4791 10.9654 10.4408L12.494 10.049C12.59 10.0243 12.6905 10.0214 12.7879 10.0407C12.8852 10.0599 12.9767 10.1008 13.0554 10.1601C13.134 10.2194 13.1977 10.2955 13.2416 10.3827C13.2854 10.4699 13.3083 10.5657 13.3083 10.6629L13.3116 11.0563ZM5.92574 4.95184L7.61952 6.62531C7.66933 6.67447 7.72859 6.7135 7.7939 6.74013C7.8592 6.76676 7.92925 6.78048 8 6.78048C8.07075 6.78048 8.1408 6.76676 8.2061 6.74013C8.27141 6.7135 8.33067 6.67447 8.38048 6.62531L10.0743 4.95184C11.8665 3.18204 10.7067 0.115918 8.16687 0H8H7.83312C5.29328 0.115918 4.1335 3.18204 5.92574 4.95184ZM8 1.5102C8.27922 1.5102 8.55217 1.59121 8.78433 1.74298C9.0165 1.89475 9.19745 2.11047 9.3043 2.36286C9.41115 2.61524 9.43911 2.89296 9.38464 3.16089C9.33016 3.42882 9.19571 3.67493 8.99827 3.8681C8.80083 4.06127 8.54928 4.19282 8.27542 4.24611C8.00157 4.29941 7.71771 4.27206 7.45974 4.16751C7.20177 4.06297 6.98129 3.88594 6.82616 3.6588C6.67103 3.43165 6.58823 3.16461 6.58823 2.89143C6.58823 2.5251 6.73697 2.17379 7.00173 1.91476C7.26649 1.65573 7.62558 1.5102 8 1.5102Z" fill="white"/>
</svg>
