<svg width="17" height="23" viewBox="0 0 17 23" fill="none" xmlns="http://www.w3.org/2000/svg">
<g id="Vector">
<path d="M13.9809 15.6265C13.8118 16.5551 13.0846 17.2117 12.1727 17.2117C11.8793 17.2117 11.5894 17.1439 11.3096 17.0102L10.4183 16.5834L9.85564 17.4082C9.81689 17.4642 9.77562 17.5161 9.73284 17.5681L12.1284 22.8168C12.1807 22.9325 12.2723 22.9346 12.3307 22.822L13.4832 20.5987C13.542 20.4861 13.6895 20.4156 13.8113 20.4424L16.2194 20.9694C16.3412 20.9961 16.398 20.9236 16.3452 20.8079L13.9809 15.6265Z" fill="white"/>
<path d="M6.16572 16.5839L5.27444 17.0107C4.99412 17.1444 4.70374 17.2123 4.41135 17.2123C3.49943 17.2123 2.77222 16.5551 2.60312 15.6265L0.237791 20.8084C0.184949 20.9241 0.241817 20.9966 0.363607 20.9699L2.77172 20.4429C2.89401 20.4161 3.04096 20.4866 3.09984 20.5992L4.25231 22.8225C4.31069 22.9351 4.40229 22.933 4.45513 22.8174L6.85066 17.5681C6.80889 17.5167 6.76712 17.4647 6.72837 17.4087L6.16572 16.5839Z" fill="white"/>
<path d="M16.2904 7.96882L15.2964 7.26027C14.9059 6.98159 14.7509 6.39234 14.9527 5.95065L15.467 4.82974C15.6693 4.38857 15.4459 3.99317 14.9708 3.95152L13.763 3.84508C13.2874 3.80292 12.8657 3.37203 12.8249 2.88613L12.7207 1.65312C12.6799 1.16722 12.2934 0.93944 11.8611 1.14563L10.764 1.67061C10.3317 1.87731 9.75448 1.71894 9.48171 1.31942L8.78872 0.303912C8.51545 -0.0956073 8.06855 -0.0956073 7.79578 0.303912L7.10229 1.31942C6.82952 1.71894 6.25278 1.87679 5.82098 1.67061L4.72287 1.14563C4.29107 0.938926 3.90355 1.16671 3.86329 1.65261L3.75962 2.88613C3.71886 3.37152 3.29612 3.80343 2.82104 3.84508L1.61321 3.951C1.13813 3.99265 0.914176 4.38806 1.11699 4.82922L1.63082 5.95117C1.83313 6.39234 1.67863 6.9821 1.2876 7.26079L0.293654 7.96882C-0.0978845 8.2475 -0.0978845 8.7041 0.293654 8.9833L1.2881 9.69184C1.67863 9.97053 1.83364 10.5598 1.63132 11.0015L1.11749 12.1229C0.915183 12.5641 1.13863 12.9595 1.61371 13.0011L2.82154 13.107C3.29662 13.1487 3.71936 13.5801 3.76012 14.0655L3.8638 15.2995C3.90456 15.7849 4.29157 16.0132 4.72337 15.8065L5.82149 15.2815C6.25329 15.0753 6.83053 15.2327 7.10279 15.6327L7.79629 16.6482C8.06906 17.0477 8.51595 17.0477 8.78923 16.6482L9.48272 15.6327C9.75549 15.2332 10.3322 15.0753 10.7645 15.2815L11.8621 15.8065C12.2939 16.0132 12.6804 15.7849 12.7212 15.2995L12.8259 14.066C12.8667 13.5806 13.2884 13.1487 13.764 13.1076L14.9713 13.0011C15.4464 12.9595 15.6703 12.5641 15.4675 12.1229L14.9532 11.0009C14.7514 10.5598 14.9059 9.97001 15.2974 9.69133L16.2909 8.9833C16.6814 8.7041 16.6814 8.2475 16.2904 7.96882ZM8.2915 13.5719C5.53714 13.5719 3.30417 11.2899 3.30417 8.47632C3.30417 5.66169 5.53765 3.38026 8.2915 3.38026C11.0459 3.38026 13.2793 5.6622 13.2793 8.47632C13.2793 11.2904 11.0459 13.5719 8.2915 13.5719Z" fill="white"/>
<path d="M9.91351 7.00061C9.67698 6.96565 9.39767 6.75792 9.29198 6.53939L8.48374 4.86625C8.37806 4.6472 8.20544 4.6472 8.09976 4.86625L7.29152 6.53939C7.18633 6.75792 6.90652 6.96565 6.66999 7.00061L4.86277 7.2685C4.62624 7.30398 4.57289 7.4716 4.744 7.6418L6.05248 8.94474C6.22309 9.11544 6.32978 9.45069 6.28952 9.69081L5.98102 11.53C5.94026 11.7707 6.08016 11.874 6.29153 11.7609L7.90801 10.8925C8.11938 10.7788 8.46512 10.7788 8.67649 10.8925L10.293 11.7609C10.5038 11.8745 10.6442 11.7707 10.6035 11.53L10.295 9.69081C10.2542 9.45069 10.3614 9.11493 10.532 8.94474L11.8405 7.6418C12.0116 7.4716 11.9578 7.30398 11.7217 7.2685L9.91351 7.00061Z" fill="white"/>
</g>
</svg>
