<svg width="15" height="15" viewBox="0 0 15 15" fill="none" xmlns="http://www.w3.org/2000/svg">
<path id="Vector" d="M14.9471 0.973716L9.43933 14.5539C9.38516 14.6892 9.29064 14.8046 9.16862 14.8843C9.0466 14.9641 8.90299 15.0043 8.75729 14.9996C8.6116 14.9949 8.47088 14.9455 8.35426 14.858C8.23763 14.7706 8.15075 14.6494 8.10541 14.5108L6.32398 9.12783C6.2871 9.02956 6.22962 8.94033 6.1554 8.86611C6.08119 8.79189 5.99195 8.73442 5.89369 8.69753L0.48917 6.88168C0.350629 6.83634 0.2294 6.74946 0.141951 6.63284C0.0545009 6.51621 0.0050691 6.37549 0.000369256 6.2298C-0.00433059 6.0841 0.0359294 5.94049 0.115681 5.81847C0.195432 5.69645 0.310809 5.60194 0.44614 5.54776L14.0263 0.0528829C14.1551 1.30675e-05 14.2966 -0.0135938 14.4331 0.0137742C14.5695 0.0411422 14.6949 0.108263 14.7933 0.206691C14.8917 0.305119 14.9589 0.430459 14.9862 0.56694C15.0136 0.703422 15 0.844949 14.9471 0.973716Z" fill="#7BFF98"/>
</svg>
