<svg width="17" height="15" viewBox="0 0 17 15" fill="none" xmlns="http://www.w3.org/2000/svg">
<path id="Vector" d="M11.7793 3.05335V1.04922C11.7787 0.771137 11.6671 0.504619 11.4689 0.307984C11.2708 0.111349 11.0022 0.000610393 10.722 0H1.05735C0.777113 0.0006228 0.508537 0.111365 0.310382 0.307998C0.112228 0.50463 0.000627623 0.771141 0 1.04922V13.8521C0.000627623 14.1301 0.112228 14.3967 0.310382 14.5933C0.508537 14.7899 0.777113 14.9007 1.05735 14.9013H10.722C11.0022 14.9007 11.2708 14.7899 11.4689 14.5933C11.6671 14.3967 11.7787 14.1301 11.7793 13.8521V13.0268L10.2527 13.5279C9.99316 13.6127 9.71213 13.6062 9.45683 13.5096C9.20154 13.413 8.98754 13.2321 8.85081 12.9974H6.86086C6.7047 12.9953 6.55564 12.9323 6.44595 12.822C6.33626 12.7116 6.27476 12.5629 6.27476 12.4079C6.27476 12.2529 6.33626 12.1042 6.44595 11.9939C6.55564 11.8836 6.7047 11.8205 6.86086 11.8185H8.435C8.28585 11.3095 7.90077 10.5698 8.22119 10.056C9.02901 8.4645 10.7398 5.09874 11.7793 3.05335ZM2.48298 2.46979H5.88668C6.04292 2.47176 6.19209 2.53472 6.30188 2.64505C6.41167 2.75538 6.47323 2.90419 6.47323 3.05924C6.47323 3.2143 6.41167 3.36311 6.30188 3.47344C6.19209 3.58377 6.04292 3.64673 5.88668 3.64869H2.48298C2.32696 3.6464 2.17812 3.58328 2.06861 3.47299C1.9591 3.3627 1.89771 3.21408 1.89771 3.05924C1.89771 2.90441 1.9591 2.75579 2.06861 2.6455C2.17812 2.5352 2.32696 2.47209 2.48298 2.46979ZM2.48298 5.02801H7.73406C7.89008 5.0303 8.03892 5.09342 8.14843 5.20371C8.25795 5.314 8.31933 5.46262 8.31933 5.61746C8.31933 5.77229 8.25795 5.92091 8.14843 6.0312C8.03892 6.1415 7.89008 6.20461 7.73406 6.20691H2.48298C2.32696 6.20461 2.17812 6.1415 2.06861 6.0312C1.9591 5.92091 1.89771 5.77229 1.89771 5.61746C1.89771 5.46262 1.9591 5.314 2.06861 5.20371C2.17812 5.09342 2.32696 5.0303 2.48298 5.02801ZM7.73406 8.77101H2.48298C2.32696 8.76871 2.17812 8.7056 2.06861 8.59531C1.9591 8.48502 1.89771 8.3364 1.89771 8.18156C1.89771 8.02673 1.9591 7.87811 2.06861 7.76781C2.17812 7.65752 2.32696 7.59441 2.48298 7.59211H7.73406C7.89008 7.59441 8.03892 7.65752 8.14843 7.76781C8.25795 7.87811 8.31933 8.02673 8.31933 8.18156C8.31933 8.3364 8.25795 8.48502 8.14843 8.59531C8.03892 8.7056 7.89008 8.76871 7.73406 8.77101ZM15.4444 4.48571L11.7793 11.6829L11.714 11.8067L9.87845 12.4079L9.2785 10.5865C10.1339 8.90658 11.9991 5.252 13.0089 3.26555L15.4444 4.48571ZM16.371 2.66431L15.979 3.4306L13.5435 2.21044L13.9356 1.44415C14.0168 1.28401 14.1588 1.16241 14.3303 1.10605C14.5018 1.04968 14.6888 1.06317 14.8504 1.14353L16.0681 1.75656C16.2291 1.83751 16.3514 1.9784 16.4081 2.14846C16.4649 2.31853 16.4516 2.50397 16.371 2.66431Z" fill="white"/>
</svg>
