<svg width="18" height="9" viewBox="0 0 18 9" fill="none" xmlns="http://www.w3.org/2000/svg">
<path d="M17.7131 1.80844L11.7 3.6L10.2797 2.89125C10.0294 2.7675 9.75375 2.7 9.47531 2.7H7.875V1.35H9.45C9.6975 1.35 9.9 1.1475 9.9 0.9V0.45C9.9 0.2025 9.6975 0 9.45 0H4.95C4.7025 0 4.5 0.2025 4.5 0.45V0.9C4.5 1.1475 4.7025 1.35 4.95 1.35H6.525V2.7H4.95L1.06031 1.99406C1.00687 1.98281 0.953437 1.98 0.897187 1.98C0.410625 1.98 0 2.37375 0 2.88V5.54906C0 5.985 0.312187 6.35625 0.739687 6.435L2.7 6.79219V8.1C2.7 8.59781 3.10219 9 3.6 9H11.3231C11.5622 9 11.7956 8.90437 11.9644 8.73281L17.9353 2.69156C17.9775 2.64937 18 2.59312 18 2.53125V2.025C18 1.87594 17.8566 1.76906 17.7131 1.80844ZM2.7 5.41969L1.35 5.175V3.42L2.7 3.66469V5.41969Z" fill="#DA6A10"/>
</svg>
