<?xml version="1.0" encoding="utf-8"?>

<!-- Uploaded to: SVG Repo, www.svgrepo.com, Generator: SVG Repo Mixer Tools -->
<svg width="11px" height="11px" viewBox="0 -3.69 67.869 67.869" xmlns="http://www.w3.org/2000/svg">
  <g id="Group_80" data-name="Group 80" transform="translate(-626.432 -209.608)">
    <path id="Path_181" data-name="Path 181" d="M671.206,210c4.7,3.715,7.809,9.254,2.147,13.647-2.088,1.619-5.4,2.084-7.862,2.849-3.9,1.215-7.07,2.706-4.261,6.973,1.21,1.836-1.733,3.569-2.942,1.733-3.687-5.6-.734-9.44,4.9-11.53,2.769-1.029,5.875-1.439,8.435-2.965,4.035-2.412-.654-6.564-2.791-8.253-1.726-1.364.664-3.805,2.377-2.454Z" fill="#ffc52f"/>
    <g id="Group_79" data-name="Group 79">
      <path id="Path_182" data-name="Path 182" d="M694.3,260.593c-.15-3.263-2.693-16.5-4.315-22.465a12.033,12.033,0,0,0-.671-2.173.252.252,0,0,1-.01-.028l-.006-.008a12.119,12.119,0,0,0-20.072-3.541,78.292,78.292,0,0,0-9.565-.668,76.549,76.549,0,0,0-8.3.512,12.114,12.114,0,0,0-19.923,3.7l0,.006c0,.008-.008.02-.012.03a12.236,12.236,0,0,0-.672,2.173c-1.621,5.965-4.162,19.2-4.312,22.465-.006.172,0,.338,0,.5a9.194,9.194,0,0,0,16.74,5.051l.01-.012a74.139,74.139,0,0,0,4.525-7.7,5.583,5.583,0,0,0,9.826-3.635,5.5,5.5,0,0,0-.141-1.224h2.258l3.672,0a5.582,5.582,0,0,0,9.686,4.857,74.942,74.942,0,0,0,4.525,7.7l.012.016a9.195,9.195,0,0,0,16.74-5.053C694.3,260.931,694.3,260.765,694.3,260.593Z" fill="#dce2e9"/>
      <g id="Group_67" data-name="Group 67" opacity="0.5" style="mix-blend-mode: screen;isolation: isolate">
        <g id="Group_66" data-name="Group 66">
          <path id="Path_183" data-name="Path 183" d="M642.175,229.64a12.364,12.364,0,0,1,8.961,3.828,77.914,77.914,0,0,1,8.5-.525,79.278,79.278,0,0,1,9.8.685,12.408,12.408,0,0,1,19.686,1.924,12.112,12.112,0,0,0-19.9-3.174,78.292,78.292,0,0,0-9.565-.668,76.549,76.549,0,0,0-8.3.512,12.106,12.106,0,0,0-19.753,3.33A12.4,12.4,0,0,1,642.175,229.64Z" fill="#ffffff"/>
        </g>
      </g>
      <path id="Path_184" data-name="Path 184" d="M652.3,240.6a9.688,9.688,0,1,1-9.69-9.685A9.689,9.689,0,0,1,652.3,240.6Z" fill="#ffffff" opacity="0.5" style="mix-blend-mode: screen;isolation: isolate"/>
      <path id="Path_185" data-name="Path 185" d="M642.61,251.927a11.284,11.284,0,0,1-8.83-4.238l-4.726,19.633a9.161,9.161,0,0,0,6.576,2.771c.078,0,.154,0,.23,0l8.684-18.326A11.4,11.4,0,0,1,642.61,251.927Z" fill="#8c93a1" opacity="0.2"/>
      <path id="Path_186" data-name="Path 186" d="M668.431,240.6a9.688,9.688,0,1,0,9.687-9.687A9.69,9.69,0,0,0,668.431,240.6Z" fill="#ebeff2"/>
      <path id="Path_187" data-name="Path 187" d="M678.118,251.927a11.305,11.305,0,0,0,8.832-4.236l4.725,19.631a9.161,9.161,0,0,1-6.576,2.771c-.078,0-.155-.006-.231-.006l-8.682-18.326A11.415,11.415,0,0,0,678.118,251.927Z" fill="#8c93a1" opacity="0.2"/>
      <g id="Group_70" data-name="Group 70">
        <g id="Group_69" data-name="Group 69">
          <g id="Group_68" data-name="Group 68">
            <path id="Path_188" data-name="Path 188" d="M656,254.8a4.049,4.049,0,1,1-4.049-4.047A4.048,4.048,0,0,1,656,254.8Z" fill="#f7971d"/>
            <path id="Path_189" data-name="Path 189" d="M647.911,255.068a8.264,8.264,0,0,1,.041-1.569c.076-.369.76.639.774.7S647.976,255.835,647.911,255.068Z" fill="#f7971d"/>
            <path id="Path_190" data-name="Path 190" d="M655.993,255.068a8.189,8.189,0,0,0-.041-1.569c-.076-.369-.758.639-.773.7S655.929,255.835,655.993,255.068Z" fill="#f7971d"/>
          </g>
          <path id="Path_191" data-name="Path 191" d="M656,254.132a4.049,4.049,0,1,1-4.049-4.049A4.046,4.046,0,0,1,656,254.132Z" fill="#ffc52f"/>
        </g>
        <path id="Path_192" data-name="Path 192" d="M654.942,254.132a2.991,2.991,0,1,1-2.99-2.988A2.991,2.991,0,0,1,654.942,254.132Z" fill="#faac1e"/>
      </g>
      <path id="Path_193" data-name="Path 193" d="M656.657,245.23a2.046,2.046,0,1,1-2.047,2.045A2.043,2.043,0,0,1,656.657,245.23Z" fill="#8c93a1" fill-rule="evenodd"/>
      <path id="Path_194" data-name="Path 194" d="M664.073,245.23a2.047,2.047,0,1,1-2.045,2.045A2.049,2.049,0,0,1,664.073,245.23Z" fill="#8c93a1" fill-rule="evenodd"/>
      <g id="Group_71" data-name="Group 71">
        <path id="Path_195" data-name="Path 195" d="M645.1,245.873a1.332,1.332,0,0,1-1.33,1.33H641.3a1.327,1.327,0,0,1-1.328-1.329l0-10.46a1.333,1.333,0,0,1,1.33-1.331l2.465,0a1.328,1.328,0,0,1,1.33,1.331Z" fill="#727a86"/>
        <path id="Path_196" data-name="Path 196" d="M637.306,243.207a1.33,1.33,0,0,1-1.33-1.33l0-2.467a1.326,1.326,0,0,1,1.328-1.33h10.459a1.33,1.33,0,0,1,1.33,1.33v2.468a1.33,1.33,0,0,1-1.33,1.329Z" fill="#727a86"/>
      </g>
      <path id="Path_197" data-name="Path 197" d="M647.765,237.416H645.1v-2.667a1.331,1.331,0,0,0-1.33-1.33H641.3a1.328,1.328,0,0,0-1.328,1.33v2.667l-2.668,0a1.331,1.331,0,0,0-1.328,1.332v2.466a1.327,1.327,0,0,0,1.328,1.329h2.668v2.667a1.329,1.329,0,0,0,1.328,1.329h2.467a1.328,1.328,0,0,0,1.33-1.329v-2.667h2.666a1.327,1.327,0,0,0,1.33-1.329v-2.466A1.33,1.33,0,0,0,647.765,237.416Z" fill="#5a6271"/>
      <g id="Group_74" data-name="Group 74">
        <g id="Group_73" data-name="Group 73">
          <g id="Group_72" data-name="Group 72">
            <path id="Path_198" data-name="Path 198" d="M672.825,254.8a4.05,4.05,0,1,1-4.049-4.047A4.045,4.045,0,0,1,672.825,254.8Z" fill="#f7971d"/>
            <path id="Path_199" data-name="Path 199" d="M664.737,255.068a8.436,8.436,0,0,1,.039-1.569c.077-.369.76.637.774.7S664.8,255.835,664.737,255.068Z" fill="#f7971d"/>
            <path id="Path_200" data-name="Path 200" d="M672.815,255.068a7.944,7.944,0,0,0-.037-1.569c-.076-.369-.759.641-.775.7S672.753,255.835,672.815,255.068Z" fill="#f7971d"/>
          </g>
          <path id="Path_201" data-name="Path 201" d="M672.827,254.132a4.049,4.049,0,1,1-4.051-4.049A4.048,4.048,0,0,1,672.827,254.132Z" fill="#ffc52f"/>
        </g>
        <path id="Path_202" data-name="Path 202" d="M671.767,254.132a2.991,2.991,0,1,1-2.991-2.988A2.993,2.993,0,0,1,671.767,254.132Z" fill="#faac1e"/>
      </g>
      <g id="Group_75" data-name="Group 75">
        <path id="Path_203" data-name="Path 203" d="M675.1,240.574a7.273,7.273,0,0,0-.049-1.133c-.018-.135-.108-.1-.219,0a2.631,2.631,0,0,0-4.732,0c-.114-.108-.2-.143-.225-.006a6.839,6.839,0,0,0-.043,1.133.13.13,0,0,0,0,.027c0,.047,0,.092,0,.137,0,.029,0,.064,0,.094l0,.015a2.635,2.635,0,0,0,5.248,0,.02.02,0,0,1,0-.015c0-.03,0-.063,0-.094s.006-.09.006-.135A.144.144,0,0,1,675.1,240.574Z" fill="#727a86" fill-rule="evenodd"/>
        <path id="Path_204" data-name="Path 204" d="M675.1,239.937a2.636,2.636,0,1,1-2.635-2.635A2.636,2.636,0,0,1,675.1,239.937Z" fill="#5a6271" fill-rule="evenodd"/>
      </g>
      <g id="Group_76" data-name="Group 76">
        <path id="Path_205" data-name="Path 205" d="M686.472,240.576a7.429,7.429,0,0,0-.045-1.135c-.022-.137-.112-.1-.225.006a2.629,2.629,0,0,0-4.73,0c-.112-.108-.2-.143-.223-.006a7.059,7.059,0,0,0-.045,1.133l0,.027c0,.049.006.092.006.137s0,.064,0,.094a.028.028,0,0,0,0,.013,2.633,2.633,0,0,0,5.244,0l0-.015c0-.032,0-.063,0-.094s.008-.086.008-.137A.109.109,0,0,1,686.472,240.576Z" fill="#727a86" fill-rule="evenodd"/>
        <path id="Path_206" data-name="Path 206" d="M686.474,239.939a2.636,2.636,0,1,1-2.637-2.637A2.637,2.637,0,0,1,686.474,239.939Z" fill="#5a6271" fill-rule="evenodd"/>
      </g>
      <g id="Group_77" data-name="Group 77">
        <path id="Path_207" data-name="Path 207" d="M680.786,246.259a6.606,6.606,0,0,0-.045-1.132c-.019-.137-.109-.1-.222,0a2.632,2.632,0,0,0-4.731,0c-.113-.105-.2-.14-.223-.006a6.957,6.957,0,0,0-.044,1.133.075.075,0,0,0,0,.03c0,.046,0,.09,0,.136,0,.03,0,.065,0,.092l0,.016a2.635,2.635,0,0,0,5.248,0c0-.006,0-.008,0-.016a.755.755,0,0,1,0-.094c0-.043.008-.088.006-.134Z" fill="#727a86" fill-rule="evenodd"/>
        <path id="Path_208" data-name="Path 208" d="M680.788,245.623a2.635,2.635,0,1,1-2.635-2.635A2.635,2.635,0,0,1,680.788,245.623Z" fill="#5a6271" fill-rule="evenodd"/>
      </g>
      <g id="Group_78" data-name="Group 78">
        <path id="Path_209" data-name="Path 209" d="M680.786,234.89a6.853,6.853,0,0,0-.045-1.135c-.019-.132-.111-.1-.222.006a2.631,2.631,0,0,0-4.731,0c-.113-.107-.2-.142-.223-.006a6.933,6.933,0,0,0-.044,1.133.136.136,0,0,0,0,.027c0,.049,0,.092.005.137,0,.028,0,.065,0,.094l0,.012a2.634,2.634,0,0,0,5.246,0l0-.014c0-.031,0-.065,0-.094,0-.047.008-.092.008-.137A.12.12,0,0,1,680.786,234.89Z" fill="#727a86" fill-rule="evenodd"/>
        <path id="Path_210" data-name="Path 210" d="M680.79,234.255a2.635,2.635,0,1,1-2.637-2.638A2.638,2.638,0,0,1,680.79,234.255Z" fill="#5a6271" fill-rule="evenodd"/>
      </g>
    </g>
  </g>
</svg>