<?xml version="1.0" encoding="iso-8859-1"?>
<!-- Uploaded to: SVG Repo, www.svgrepo.com, Generator: SVG Repo Mixer Tools -->
<svg fill="white" height="11px" width="11px" version="1.1" id="Layer_1" xmlns="http://www.w3.org/2000/svg" xmlns:xlink="http://www.w3.org/1999/xlink" 
	 viewBox="0 0 512 512" xml:space="preserve">
<g>
	<g>
		<g>
			<path d="M399.034,265.919l-54.092,54.073h-28.602c2.373-6.678,3.666-13.859,3.666-21.333c0-35.249-28.751-64-64-64H152.798
				L128,226.4V192c0-11.782-9.551-21.333-21.333-21.333H21.333C9.551,170.667,0,180.218,0,192v298.667
				C0,502.449,9.551,512,21.333,512h85.333c11.782,0,21.333-9.551,21.333-21.333v-21.342h127.068
				c60.397,0,119.538-17.22,170.512-49.648l3.637-2.917l60.331-60.352c24.927-24.895,24.927-65.568-0.003-90.498
				C464.615,240.979,423.942,240.979,399.034,265.919z M85.333,469.333H42.667v-256h42.667V469.333z M459.384,326.23l-58.654,58.674
				c-43.686,27.281-94.146,41.754-145.663,41.754H128.006V271.372l14.593,4.86c2.173,0.724,4.449,1.093,6.74,1.093h106.667
				c11.685,0,21.333,9.649,21.333,21.333c0,11.685-9.649,21.333-21.333,21.333c-28.444,0-28.444,42.667,0,42.667h97.771
				c5.657,0,11.082-2.247,15.082-6.246l60.352-60.331c8.257-8.267,21.899-8.267,30.163-0.003S467.639,317.986,459.384,326.23z"/>
			<path d="M256,192c35.355,0,64-28.645,64-64s-28.645-64-64-64s-64,28.645-64,64S220.645,192,256,192z M256,106.667
				c11.791,0,21.333,9.542,21.333,21.333s-9.542,21.333-21.333,21.333c-11.791,0-21.333-9.542-21.333-21.333
				S244.209,106.667,256,106.667z"/>
			<path d="M448,128c35.355,0,64-28.645,64-64S483.355,0,448,0s-64,28.645-64,64S412.645,128,448,128z M448,42.667
				c11.791,0,21.333,9.542,21.333,21.333S459.791,85.333,448,85.333S426.667,75.791,426.667,64S436.209,42.667,448,42.667z"/>
		</g>
	</g>
</g>
</svg>