<svg xmlns="http://www.w3.org/2000/svg" xmlns:xlink="http://www.w3.org/1999/xlink" width="24" height="24" viewBox="0 0 24 24">
  <defs>
    <clipPath id="clip-path">
      <rect id="Rectangle_55" data-name="Rectangle 55" width="24" height="24" fill="#fff"/>
    </clipPath>
  </defs>
  <g id="discord-svgrepo-com_1_" data-name="discord-svgrepo-com (1)" clip-path="url(#clip-path)">
    <path id="Path_36" data-name="Path 36" d="M20.317,4.541A19.562,19.562,0,0,0,15.432,3a.074.074,0,0,0-.078.038c-.211.381-.445.879-.608,1.27a17.983,17.983,0,0,0-5.487,0,12.935,12.935,0,0,0-.618-1.27A.077.077,0,0,0,8.562,3a19.508,19.508,0,0,0-4.885,1.54.07.07,0,0,0-.032.028A20.84,20.84,0,0,0,.1,18.451a.084.084,0,0,0,.031.057,19.781,19.781,0,0,0,5.993,3.078.077.077,0,0,0,.084-.028,14.494,14.494,0,0,0,1.226-2.027.078.078,0,0,0-.042-.107,13.011,13.011,0,0,1-1.872-.907.079.079,0,0,1-.008-.13c.126-.1.252-.2.372-.3a.073.073,0,0,1,.078-.011,13.989,13.989,0,0,0,12.061,0,.073.073,0,0,1,.078.01c.12.1.246.2.373.3a.079.079,0,0,1-.007.13,12.213,12.213,0,0,1-1.873.906.078.078,0,0,0-.041.108,16.294,16.294,0,0,0,1.225,2.026.075.075,0,0,0,.084.029,19.715,19.715,0,0,0,6-3.078.079.079,0,0,0,.031-.056A20.7,20.7,0,0,0,20.348,4.57.061.061,0,0,0,20.317,4.541ZM8.02,15.68a2.33,2.33,0,0,1-2.157-2.458A2.317,2.317,0,0,1,8.02,10.764a2.3,2.3,0,0,1,2.157,2.458A2.317,2.317,0,0,1,8.02,15.68Zm7.975,0a2.33,2.33,0,0,1-2.157-2.458,2.317,2.317,0,0,1,2.157-2.458,2.3,2.3,0,0,1,2.157,2.458A2.311,2.311,0,0,1,15.995,15.68Z" fill="#fff"/>
  </g>
</svg>
