<svg xmlns="http://www.w3.org/2000/svg" xmlns:xlink="http://www.w3.org/1999/xlink" width="16" height="16" viewBox="0 0 16 16">
  <defs>
    <clipPath id="clip-path">
      <rect id="Rectangle_94" data-name="Rectangle 94" width="16" height="16" transform="translate(0 -0.395)" fill="#fff"/>
    </clipPath>
  </defs>
  <g id="zr-icon-discord" transform="translate(0 0.395)" clip-path="url(#clip-path)">
    <path id="Path_362" data-name="Path 362" d="M13.229,4a12.737,12.737,0,0,0-3.181-1A.048.048,0,0,0,10,3.025c-.137.248-.29.572-.4.827a11.709,11.709,0,0,0-3.573,0,8.422,8.422,0,0,0-.4-.827A.05.05,0,0,0,5.575,3,12.7,12.7,0,0,0,2.394,4a.046.046,0,0,0-.021.018A13.569,13.569,0,0,0,.065,13.061a.055.055,0,0,0,.02.037,12.88,12.88,0,0,0,3.9,2,.05.05,0,0,0,.055-.018,9.438,9.438,0,0,0,.8-1.32.051.051,0,0,0-.027-.07,8.472,8.472,0,0,1-1.219-.59.051.051,0,0,1,0-.084c.082-.062.164-.127.242-.193a.048.048,0,0,1,.051-.007,9.108,9.108,0,0,0,7.854,0,.047.047,0,0,1,.051.006c.078.066.16.131.243.193a.051.051,0,0,1,0,.084,7.952,7.952,0,0,1-1.22.59.051.051,0,0,0-.027.071,10.61,10.61,0,0,0,.8,1.319.049.049,0,0,0,.055.019,12.837,12.837,0,0,0,3.908-2,.051.051,0,0,0,.02-.037,13.478,13.478,0,0,0-2.311-9.039A.04.04,0,0,0,13.229,4ZM5.222,11.256a1.517,1.517,0,0,1-1.4-1.6,1.509,1.509,0,0,1,1.4-1.6,1.5,1.5,0,0,1,1.4,1.6A1.509,1.509,0,0,1,5.222,11.256Zm5.193,0a1.517,1.517,0,0,1-1.4-1.6,1.509,1.509,0,0,1,1.4-1.6,1.5,1.5,0,0,1,1.4,1.6A1.5,1.5,0,0,1,10.415,11.256Z" transform="translate(0 -1.069)" fill="#fff"/>
  </g>
</svg>
