<svg xmlns="http://www.w3.org/2000/svg" width="16" height="16" viewBox="0 0 16 16">
  <g id="zr-icon-bank" transform="translate(0.001 -0.001)">
    <path id="XMLID_4_" d="M.727,6.263h.727V11.08H2.909V6.263H5.333V11.08H6.787V6.263H9.212V11.08h1.455V6.263H13.09V11.08h1.455V6.263h.727a.722.722,0,0,0,.4-1.324L8.4.123a.731.731,0,0,0-.807,0L.323,4.939a.722.722,0,0,0,.4,1.324Z" transform="translate(0 0)" fill="#fff"/>
    <path id="XMLID_5_" d="M15.274,260H.728a.733.733,0,0,0-.727.738v1.969a.733.733,0,0,0,.727.738H15.274a.733.733,0,0,0,.727-.738v-1.969A.733.733,0,0,0,15.274,260Z" transform="translate(-0.002 -247.445)" fill="#00ffcb"/>
  </g>
</svg>
