<svg xmlns="http://www.w3.org/2000/svg" width="16" height="16" viewBox="0 0 16 16">
  <g id="zr-icon-job" transform="translate(-2 -3)">
    <path id="Path_43" data-name="Path 43" d="M5.286,24.443A3.9,3.9,0,0,1,3,23.7v.743a1.684,1.684,0,0,0,1.714,1.714.54.54,0,0,0,.571.571.54.54,0,0,0,.571-.571H15a.571.571,0,1,0,1.143,0,1.684,1.684,0,0,0,1.714-1.714V23.7a3.9,3.9,0,0,1-2.286.743Z" transform="translate(-0.429 -7.729)" fill="#00ffcb"/>
    <path id="Path_44" data-name="Path 44" d="M16.286,5.514H12.857V4.886A1.774,1.774,0,0,0,11.143,3H8.857A1.774,1.774,0,0,0,7.143,4.886v.629H3.714A1.774,1.774,0,0,0,2,7.4v5.029a2.981,2.981,0,0,0,2.857,3.143H7.829a2.022,2.022,0,0,1-.114-.629V13.057a.569.569,0,0,1,.571-.629h3.429a.569.569,0,0,1,.571.629v1.886a2.022,2.022,0,0,1-.114.629h2.971A2.981,2.981,0,0,0,18,12.429V7.4A1.774,1.774,0,0,0,16.286,5.514Zm-8-.629a.569.569,0,0,1,.571-.629h2.286a.569.569,0,0,1,.571.629v.629H8.286Z" transform="translate(0 0)" fill="#fff"/>
  </g>
</svg>
