<svg xmlns="http://www.w3.org/2000/svg" xmlns:xlink="http://www.w3.org/1999/xlink" width="16" height="16" viewBox="0 0 16 16">
  <defs>
    <clipPath id="clip-path">
      <rect y="-1" width="16" height="16" fill="none"/>
    </clipPath>
  </defs>
  <g id="zr-icon-name" transform="translate(0 1)" clip-path="url(#clip-path)" style="isolation: isolate">
    <g id="identity-svgrepo-com">
      <path id="Path_40" data-name="Path 40" d="M16.667,8h-3.7s.033.245.033.35a2.379,2.379,0,0,1-2.333,2.45h-2A2.379,2.379,0,0,1,6.333,8.35c0-.1,0-.35.033-.35H3.333A1.372,1.372,0,0,0,2,9.4V19.9a1.372,1.372,0,0,0,1.333,1.4H16.667A1.372,1.372,0,0,0,18,19.9V9.4A1.372,1.372,0,0,0,16.667,8Zm-8.1,10.5h-3.8A.837.837,0,0,1,4,17.623c0-.7.7-1.085,1.433-1.4.5-.21.567-.42.567-.665a.928.928,0,0,0-.3-.595,1.568,1.568,0,0,1-.467-1.155,1.445,1.445,0,0,1,1.4-1.61,1.445,1.445,0,0,1,1.4,1.61,1.568,1.568,0,0,1-.467,1.155.928.928,0,0,0-.3.595c0,.21.067.42.567.665.733.315,1.433.7,1.433,1.4A.746.746,0,0,1,8.567,18.5ZM16,17.1a.323.323,0,0,1-.333.35H11a.323.323,0,0,1-.333-.35v-.7a.323.323,0,0,1,.333-.35h4.667A.323.323,0,0,1,16,16.4Zm.667-2.8a.323.323,0,0,1-.333.35H11a.323.323,0,0,1-.333-.35v-.7a.323.323,0,0,1,.333-.35h5.333a.323.323,0,0,1,.333.35Z" transform="translate(-2 -7.297)" fill="#fff"/>
      <path id="Path_41" data-name="Path 41" d="M20.054,8.108h2.108a1.054,1.054,0,0,0,0-2.108H20.054a1.054,1.054,0,1,0,0,2.108Z" transform="translate(-13.435 -6)" fill="#00ffcb"/>
    </g>
  </g>
</svg>
