<svg xmlns="http://www.w3.org/2000/svg" width="16" height="16" viewBox="0 0 16 16">
  <g id="zr-icon-dob" transform="translate(-0.264 -0.265)">
    <path id="path2452" d="M6.974,3.7a3.271,3.271,0,1,0,3.273,3.268A3.255,3.255,0,0,0,6.974,3.7ZM6.438,5.534a.727.727,0,0,1,.724.73v.726h.73a.727.727,0,0,1,0,1.454H6.438a.727.727,0,0,1-.73-.724V6.263a.727.727,0,0,1,.73-.73Z" transform="translate(6.016 6.018)" fill="#7289d9"/>
    <path id="path712" d="M2.313.265a.727.727,0,0,0-.725.725V2.444a.727.727,0,1,0,1.455,0V.989a.727.727,0,0,0-.73-.725Z" transform="translate(2.315 0)" fill="#fff"/>
    <path id="path714" d="M4.694.265a.727.727,0,0,0-.725.725V2.444a.727.727,0,1,0,1.455,0V.989A.727.727,0,0,0,4.694.265Z" transform="translate(6.477 0)" fill="#fff"/>
    <path id="path716" d="M3.512.794A3.255,3.255,0,0,0,.264,4.038V9.912A3.259,3.259,0,0,0,3.512,13.16H8.4a4.712,4.712,0,0,1,7.133-5.069V4.038A3.251,3.251,0,0,0,12.292.794ZM1.752,3.705h12.3a1.86,1.86,0,0,1,.033.332V5.16H1.719V4.038a1.853,1.853,0,0,1,.033-.332ZM3.9,6.174H5.358a.727.727,0,0,1,0,1.455H3.9a.727.727,0,1,1,0-1.455Zm4.391,0H9.749a.727.727,0,0,1,0,1.455H8.294a.727.727,0,1,1,0-1.455ZM3.9,9.261H5.358a.728.728,0,0,1,0,1.456H3.9a.728.728,0,1,1,0-1.456Z" transform="translate(0 0.925)" fill="#fff"/>
  </g>
</svg>
