<svg id="zr-icon-cash" xmlns="http://www.w3.org/2000/svg" width="16" height="16" viewBox="0 0 16 16">
  <path id="Path_352" data-name="Path 352" d="M264,376.2v1.328a.717.717,0,0,0,.431-.238.659.659,0,0,0,.166-.444.591.591,0,0,0-.139-.394A.931.931,0,0,0,264,376.2Z" transform="translate(-255.743 -364.29)" fill="#fff"/>
  <path id="Path_353" data-name="Path 353" d="M234.8,307.493a.551.551,0,0,0,.113.335.814.814,0,0,0,.341.252V306.9a.665.665,0,0,0-.331.232A.574.574,0,0,0,234.8,307.493Z" transform="translate(-227.495 -297.249)" fill="#fff"/>
  <path id="Path_354" data-name="Path 354" d="M20.319,237.953a1.686,1.686,0,0,1-1.061.517v.636h-.506v-.619a1.609,1.609,0,0,1-.976-.441,1.784,1.784,0,0,1-.48-1.04l.908-.1a1.12,1.12,0,0,0,.209.47.908.908,0,0,0,.34.285v-1.428a1.934,1.934,0,0,1-1-.576,1.431,1.431,0,0,1-.32-.941,1.324,1.324,0,0,1,.359-.941,1.446,1.446,0,0,1,.96-.437V233h.509v.338a1.5,1.5,0,0,1,.882.371,1.423,1.423,0,0,1,.418.815l-.882.113a.7.7,0,0,0-.418-.546v1.331A2.275,2.275,0,0,1,20.4,236a1.337,1.337,0,0,1,.3.9,1.515,1.515,0,0,1-.385,1.05Zm6.015-6.353H11.666a.67.67,0,0,0-.666.676v7.572a.67.67,0,0,0,.666.676H26.334a.67.67,0,0,0,.666-.676v-7.572A.67.67,0,0,0,26.334,231.6Z" transform="translate(-11 -224.523)" fill="#fff"/>
  <path id="Path_355" data-name="Path 355" d="M76.386,159H65.263a.676.676,0,0,0,0,1.351H76.386a.676.676,0,0,0,0-1.351Z" transform="translate(-62.825 -154.174)" fill="#00ffcb"/>
  <path id="Path_356" data-name="Path 356" d="M126.557,86.351h7.076a.676.676,0,0,0,0-1.351h-7.076a.676.676,0,0,0,0,1.351Z" transform="translate(-122.093 -82.587)" fill="#fff"/>
  <path id="Path_357" data-name="Path 357" d="M199.776,12.351H202.2a.676.676,0,1,0,0-1.351h-2.421a.676.676,0,0,0,0,1.351Z" transform="translate(-192.985 -11)" fill="#00ffcb"/>
</svg>
