<svg xmlns="http://www.w3.org/2000/svg" width="16" height="16.002" viewBox="0 0 16 16.002">
  <g id="zr-icon-gender" transform="translate(217 -5232.999)">
    <path id="gender-transgender-bold-svgrepo-com" d="M36.092,28.92q0-.044,0-.088c0-.014,0-.028-.006-.042s0-.032-.007-.047-.007-.031-.011-.046-.007-.028-.011-.041-.01-.029-.015-.044-.01-.028-.015-.041-.012-.027-.019-.04-.013-.028-.02-.042-.014-.025-.022-.037-.016-.027-.025-.041-.019-.026-.028-.039-.016-.023-.025-.034-.037-.043-.057-.063l0,0,0,0q-.03-.03-.063-.057l-.033-.025-.039-.029-.04-.024-.038-.022-.041-.02-.041-.019-.04-.015-.046-.016-.039-.01-.048-.012-.044-.007L35.259,28c-.026,0-.051,0-.077,0h-3.4a.923.923,0,1,0,0,1.847h1.157l-1.464,1.464L30.28,30.117a.923.923,0,1,0-1.306,1.306l1.194,1.194-.8.8a5.845,5.845,0,1,0,1.306,1.306l.8-.8,1.194,1.194a.923.923,0,1,0,1.306-1.306L32.78,32.617l1.464-1.464V32.31a.923.923,0,0,0,1.847,0V28.923S36.092,28.921,36.092,28.92ZM28.763,40.988a4,4,0,1,1,1.172-2.83,4,4,0,0,1-1.172,2.83Z" transform="translate(-237.092 5204.999)" fill="#fff"/>
    <path id="Path_361" data-name="Path 361" d="M2,0A2,2,0,1,1,0,2,2,2,0,0,1,2,0Z" transform="translate(-213 5241)" fill="#7289d9"/>
  </g>
</svg>
