<svg xmlns="http://www.w3.org/2000/svg" width="100" height="106" viewBox="0 0 100 106">
  <g id="map-svgrepo-com" transform="translate(-9.901)">
    <path id="Path_329" data-name="Path 329" d="M34.1,21.645H15.667A5.766,5.766,0,0,0,9.9,27.411v16.2H34.1Z" transform="translate(0 -13.611)" fill="#fff"/>
    <path id="Path_330" data-name="Path 330" d="M9.9,186.742H40.782V176.164a3.712,3.712,0,1,1,7.423,0v14.29a3.712,3.712,0,0,1-3.712,3.712H9.9v5.319a5.766,5.766,0,0,0,5.766,5.766h41.8V155.936H9.9Z" transform="translate(0 -99.25)" fill="#fff"/>
    <path id="Path_331" data-name="Path 331" d="M248.342,21.645h-7.875A21.664,21.664,0,0,1,239.475,40h14.633V27.411A5.766,5.766,0,0,0,248.342,21.645Z" transform="translate(-144.207 -13.611)" fill="#fff"/>
    <path id="Path_332" data-name="Path 332" d="M89.855,47.4a23.46,23.46,0,0,0-2.666,5.738L83.87,63.857a8.349,8.349,0,0,1-15.947-.009L64.447,52.579a23.939,23.939,0,0,0-4.792-8.588,21.651,21.651,0,0,1-3.749-22.347H41.574V47.318a3.715,3.715,0,0,1-3.717,3.712H9.9V64.065H61.264a3.715,3.715,0,0,1,3.717,3.712V78.911H85.056a3.715,3.715,0,0,1,3.717,3.712V97.1H109.9V47.421H90.26A3.833,3.833,0,0,1,89.855,47.4Z" transform="translate(0 -13.611)" fill="#fff"/>
    <path id="Path_333" data-name="Path 333" d="M174.4,210.411V195.936H158.068V230.4H197.15a5.766,5.766,0,0,0,5.766-5.766V214.123H178.111A3.712,3.712,0,0,1,174.4,210.411Z" transform="translate(-93.015 -124.404)" fill="#fff"/>
    <path id="Path_334" data-name="Path 334" d="M154.26,37.33,157.731,48.6a2.764,2.764,0,0,0,2.64,1.95h0a2.764,2.764,0,0,0,2.641-1.947l3.314-10.721a29.317,29.317,0,0,1,6.225-10.944,16.146,16.146,0,1,0-24.2-.209A29.408,29.408,0,0,1,154.26,37.33Zm6.373-29.3a7.762,7.762,0,1,1-7.762,7.762A7.762,7.762,0,0,1,160.633,8.034Z" transform="translate(-84.462)" fill="#00ffcb"/>
  </g>
</svg>
