<svg xmlns="http://www.w3.org/2000/svg" width="40" height="40" viewBox="0 0 40 40">
  <g id="team-svgrepo-com" transform="translate(0 -0.1)">
    <circle id="Ellipse_2" data-name="Ellipse 2" cx="3.957" cy="3.957" r="3.957" transform="translate(2.42 0.1)" fill="#fff"/>
    <path id="Path_338" data-name="Path 338" d="M1.962,41.159h.392v7.827a1.965,1.965,0,0,0,1.962,1.957H8.438A1.965,1.965,0,0,0,10.4,48.986v-.456a4.935,4.935,0,0,1-.589-2.283V36.007a4.88,4.88,0,0,1,2.944-4.468v-.783A1.965,1.965,0,0,0,10.793,28.8H1.962A1.965,1.965,0,0,0,0,30.757V39.2A1.944,1.944,0,0,0,1.962,41.159Z" transform="translate(0 -19.313)" fill="#fff"/>
    <circle id="Ellipse_3" data-name="Ellipse 3" cx="3.957" cy="3.957" r="3.957" transform="translate(29.698 0.1)" fill="#fff"/>
    <path id="Path_339" data-name="Path 339" d="M83.7,30.657v.783a4.879,4.879,0,0,1,2.944,4.468V46.114a4.57,4.57,0,0,1-.588,2.283v.457a1.965,1.965,0,0,0,1.962,1.957h4.121A1.965,1.965,0,0,0,94.1,48.853V41.027h.392a1.965,1.965,0,0,0,1.962-1.957V30.657A1.965,1.965,0,0,0,94.492,28.7H85.661A1.965,1.965,0,0,0,83.7,30.657Z" transform="translate(-56.455 -19.246)" fill="#fff"/>
    <path id="Path_340" data-name="Path 340" d="M39.1,46.862h0v10.27a1.968,1.968,0,0,0,1.962,1.962h.752V68.35a1.968,1.968,0,0,0,1.962,1.962h5.266a1.968,1.968,0,0,0,1.962-1.962V59.062h.752A1.968,1.968,0,0,0,53.72,57.1V46.862h0A1.968,1.968,0,0,0,51.757,44.9h-10.7A1.947,1.947,0,0,0,39.1,46.862Z" transform="translate(-26.377 -30.213)" fill="#00ffcb"/>
    <circle id="Ellipse_4" data-name="Ellipse 4" cx="4.546" cy="4.546" r="4.546" transform="translate(15.47 4.025)" fill="#00ffcb"/>
  </g>
</svg>
