<svg xmlns="http://www.w3.org/2000/svg" xmlns:xlink="http://www.w3.org/1999/xlink" width="100" height="106" viewBox="0 0 100 106">
  <defs>
    <clipPath id="clip-path">
      <rect y="-6" width="100" height="106" fill="none"/>
    </clipPath>
  </defs>
  <g id="Scroll_Group_6" data-name="Scroll Group 6" transform="translate(0 6)" clip-path="url(#clip-path)" style="isolation: isolate">
    <g id="settings-svgrepo-com" transform="translate(-0.001)" opacity="0.9">
      <path id="Path_335" data-name="Path 335" d="M93.612,39.4H89.835A40.948,40.948,0,0,0,85.66,29.329l2.673-2.673a6.388,6.388,0,0,0,0-9.034L82.38,11.668a6.388,6.388,0,0,0-9.034,0l-2.673,2.673A40.963,40.963,0,0,0,60.6,10.167V6.388A6.388,6.388,0,0,0,54.211,0H45.792A6.388,6.388,0,0,0,39.4,6.388v3.778A40.96,40.96,0,0,0,29.33,14.341l-2.674-2.673a6.388,6.388,0,0,0-9.034,0l-5.953,5.953a6.388,6.388,0,0,0,0,9.034l2.673,2.673A40.951,40.951,0,0,0,10.167,39.4H6.389A6.388,6.388,0,0,0,0,45.791v8.419A6.388,6.388,0,0,0,6.389,60.6h3.778a40.966,40.966,0,0,0,4.175,10.074l-2.673,2.673a6.388,6.388,0,0,0,0,9.034l5.953,5.953a6.388,6.388,0,0,0,9.034,0l2.674-2.674A40.946,40.946,0,0,0,39.4,89.834v3.778A6.388,6.388,0,0,0,45.792,100h8.419A6.388,6.388,0,0,0,60.6,93.612V89.834a40.965,40.965,0,0,0,10.073-4.175l2.674,2.674a6.388,6.388,0,0,0,9.034,0l5.953-5.953a6.388,6.388,0,0,0,0-9.034l-2.674-2.674A40.963,40.963,0,0,0,89.836,60.6h3.777A6.388,6.388,0,0,0,100,54.209V45.791A6.389,6.389,0,0,0,93.612,39.4ZM50,72.865A22.865,22.865,0,1,1,72.867,50,22.891,22.891,0,0,1,50,72.865Z" fill="#fff"/>
      <path id="Path_336" data-name="Path 336" d="M112.7,101.2a11.5,11.5,0,1,0,11.5,11.5A11.514,11.514,0,0,0,112.7,101.2Z" transform="translate(-62.699 -62.7)" fill="#00ffcb"/>
    </g>
  </g>
</svg>
