<svg width="11" height="16" viewBox="0 0 11 16" fill="none" xmlns="http://www.w3.org/2000/svg">
<path d="M5.31278 15.5455V0.0901716H6.30289V15.5455H5.31278ZM7.46204 5.49955C7.42984 5.09707 7.27891 4.78313 7.00925 4.55774C6.74361 4.33235 6.33911 4.21965 5.79576 4.21965C5.44963 4.21965 5.16587 4.26191 4.94451 4.34643C4.72717 4.42693 4.56617 4.53761 4.46153 4.67848C4.35688 4.81935 4.30255 4.98035 4.29852 5.16146C4.29047 5.31038 4.31664 5.44521 4.37701 5.56596C4.4414 5.68268 4.54203 5.78934 4.67887 5.88593C4.81571 5.9785 4.99079 6.06303 5.20411 6.1395C5.41743 6.21597 5.67099 6.28439 5.9648 6.34477L6.97906 6.56211C7.66328 6.707 8.2489 6.89818 8.7359 7.13564C9.22291 7.37311 9.62137 7.65284 9.93128 7.97482C10.2412 8.29278 10.4686 8.651 10.6135 9.04945C10.7624 9.44791 10.8389 9.88259 10.8429 10.3535C10.8389 11.1665 10.6356 11.8548 10.2331 12.4182C9.83066 12.9817 9.25511 13.4104 8.50649 13.7042C7.76189 13.998 6.86637 14.1449 5.81991 14.1449C4.74528 14.1449 3.80749 13.9859 3.00655 13.668C2.20963 13.35 1.58981 12.861 1.14708 12.2009C0.708371 11.5368 0.487005 10.6876 0.48298 9.65318H3.67065C3.69077 10.0315 3.78536 10.3495 3.9544 10.6071C4.12344 10.8647 4.36091 11.0599 4.6668 11.1927C4.97671 11.3255 5.34498 11.3919 5.77161 11.3919C6.12982 11.3919 6.42967 11.3476 6.67116 11.2591C6.91265 11.1705 7.09578 11.0478 7.22055 10.8908C7.34532 10.7338 7.40972 10.5547 7.41375 10.3535C7.40972 10.1643 7.34734 9.99931 7.22659 9.85845C7.10987 9.71355 6.91668 9.58476 6.64701 9.47206C6.37735 9.35534 6.0131 9.24667 5.55427 9.14605L4.32267 8.88041C3.22792 8.64295 2.36459 8.2465 1.73269 7.69107C1.10482 7.13162 0.792892 6.36891 0.796917 5.40295C0.792892 4.61811 1.00218 3.93188 1.42479 3.34425C1.85142 2.7526 2.44106 2.29176 3.19371 1.96172C3.95038 1.63168 4.81773 1.46667 5.79576 1.46667C6.79392 1.46667 7.65725 1.6337 8.38574 1.96776C9.11424 2.30182 9.6757 2.77272 10.0701 3.38047C10.4686 3.9842 10.6698 4.69056 10.6739 5.49955H7.46204Z" fill="#01FF66"/>
</svg>
