<svg width="26" height="31" viewBox="0 0 26 31" fill="none" xmlns="http://www.w3.org/2000/svg">
<g filter="url(#filter0_f_20_24)">
<path d="M12.3128 23.5455V8.09017H13.3029V23.5455H12.3128ZM14.462 13.4995C14.4298 13.0971 14.2789 12.7831 14.0092 12.5577C13.7436 12.3323 13.3391 12.2197 12.7958 12.2197C12.4496 12.2197 12.1659 12.2619 11.9445 12.3464C11.7272 12.4269 11.5662 12.5376 11.4615 12.6785C11.3569 12.8194 11.3025 12.9803 11.2985 13.1615C11.2905 13.3104 11.3166 13.4452 11.377 13.566C11.4414 13.6827 11.542 13.7893 11.6789 13.8859C11.8157 13.9785 11.9908 14.063 12.2041 14.1395C12.4174 14.216 12.671 14.2844 12.9648 14.3448L13.9791 14.5621C14.6633 14.707 15.2489 14.8982 15.7359 15.1356C16.2229 15.3731 16.6214 15.6528 16.9313 15.9748C17.2412 16.2928 17.4686 16.651 17.6135 17.0495C17.7624 17.4479 17.8389 17.8826 17.8429 18.3535C17.8389 19.1665 17.6356 19.8548 17.2331 20.4182C16.8307 20.9817 16.2551 21.4104 15.5065 21.7042C14.7619 21.998 13.8664 22.1449 12.8199 22.1449C11.7453 22.1449 10.8075 21.9859 10.0066 21.668C9.20963 21.35 8.58981 20.861 8.14708 20.2009C7.70837 19.5368 7.487 18.6876 7.48298 17.6532H10.6706C10.6908 18.0315 10.7854 18.3495 10.9544 18.6071C11.1234 18.8647 11.3609 19.0599 11.6668 19.1927C11.9767 19.3255 12.345 19.3919 12.7716 19.3919C13.1298 19.3919 13.4297 19.3476 13.6712 19.2591C13.9127 19.1705 14.0958 19.0478 14.2206 18.8908C14.3453 18.7338 14.4097 18.5547 14.4137 18.3535C14.4097 18.1643 14.3473 17.9993 14.2266 17.8584C14.1099 17.7136 13.9167 17.5848 13.647 17.4721C13.3774 17.3553 13.0131 17.2467 12.5543 17.146L11.3227 16.8804C10.2279 16.6429 9.36459 16.2465 8.73269 15.6911C8.10482 15.1316 7.79289 14.3689 7.79692 13.403C7.79289 12.6181 8.00218 11.9319 8.42479 11.3443C8.85142 10.7526 9.44106 10.2918 10.1937 9.96172C10.9504 9.63168 11.8177 9.46667 12.7958 9.46667C13.7939 9.46667 14.6572 9.6337 15.3857 9.96776C16.1142 10.3018 16.6757 10.7727 17.0701 11.3805C17.4686 11.9842 17.6698 12.6906 17.6739 13.4995H14.462Z" fill="#01FF66"/>
</g>
<defs>
<filter id="filter0_f_20_24" x="0.210183" y="0.817437" width="24.9056" height="30.0008" filterUnits="userSpaceOnUse" color-interpolation-filters="sRGB">
<feFlood flood-opacity="0" result="BackgroundImageFix"/>
<feBlend mode="normal" in="SourceGraphic" in2="BackgroundImageFix" result="shape"/>
<feGaussianBlur stdDeviation="3.63636" result="effect1_foregroundBlur_20_24"/>
</filter>
</defs>
</svg>
