<svg width="17" height="17" viewBox="0 0 17 17" fill="none" xmlns="http://www.w3.org/2000/svg">
<path d="M14.2259 8.5L15.9568 6.77682C16.6249 6.10559 17 5.19707 17 4.25001C17 3.30294 16.6249 2.39443 15.9568 1.72319L15.2768 1.04319C14.6056 0.37508 13.6971 0 12.75 0C11.8029 0 10.8944 0.37508 10.2232 1.04319L8.5 2.7741L6.77682 1.04319C6.10559 0.37508 5.19707 0 4.25001 0C3.30294 0 2.39443 0.37508 1.72319 1.04319L1.04319 1.72319C0.37508 2.39443 0 3.30294 0 4.25001C0 5.19707 0.37508 6.10559 1.04319 6.77682L2.7741 8.5L1.04319 10.2232C0.37508 10.8944 0 11.8029 0 12.75C0 13.6971 0.37508 14.6056 1.04319 15.2768L1.72319 15.9568C2.39443 16.6249 3.30294 17 4.25001 17C5.19707 17 6.10559 16.6249 6.77682 15.9568L8.5 14.2259L10.2232 15.9568C10.8944 16.6249 11.8029 17 12.75 17C13.6971 17 14.6056 16.6249 15.2768 15.9568L15.9568 15.2768C16.6249 14.6056 17 13.6971 17 12.75C17 11.8029 16.6249 10.8944 15.9568 10.2232L14.2259 8.5ZM5.67955 14.8595C5.29471 15.2278 4.78263 15.4333 4.25001 15.4333C3.71738 15.4333 3.2053 15.2278 2.82046 14.8595L2.14046 14.1795C1.95191 13.9923 1.80227 13.7696 1.70015 13.5242C1.59803 13.2789 1.54546 13.0157 1.54546 12.75C1.54546 12.4842 1.59803 12.2211 1.70015 11.9758C1.80227 11.7304 1.95191 11.5077 2.14046 11.3205L3.86364 9.58954L7.41046 13.1364L5.67955 14.8595ZM10.5919 10.5919C10.447 10.7368 10.2505 10.8182 10.0455 10.8182C9.84059 10.8182 9.64405 10.7368 9.49914 10.5919L6.40823 7.50102C6.26329 7.35613 6.18184 7.15959 6.1818 6.95465C6.18177 6.7497 6.26314 6.55313 6.40804 6.40819C6.55293 6.26325 6.74947 6.1818 6.95441 6.18176C7.15936 6.18173 7.35592 6.26311 7.50086 6.408L10.5918 9.4989C10.6636 9.57065 10.7205 9.65584 10.7594 9.74961C10.7983 9.84338 10.8183 9.94388 10.8183 10.0454C10.8183 10.1469 10.7983 10.2474 10.7595 10.3412C10.7206 10.4349 10.6637 10.5202 10.5919 10.5919ZM9.58954 3.86364L11.3205 2.14046C11.7053 1.77224 12.2174 1.56672 12.75 1.56672C13.2826 1.56672 13.7947 1.77224 14.1795 2.14046L14.8595 2.82046C15.0481 3.00773 15.1977 3.23045 15.2999 3.47579C15.402 3.72114 15.4545 3.98426 15.4545 4.25001C15.4545 4.51575 15.402 4.77887 15.2999 5.02422C15.1977 5.26956 15.0481 5.49228 14.8595 5.67955L13.1364 7.41046L9.58954 3.86364Z" fill="white"/>
</svg>
