<svg width="17" height="19" viewBox="0 0 17 19" fill="none" xmlns="http://www.w3.org/2000/svg">
<path d="M3.44278 0L0.455357 3.16899C3.32717 5.70549 0 8.09353 0 11.081C0 13.2978 2.78271 17.8951 8.5 19C14.2173 17.8951 17 13.2978 17 11.081C17 8.09353 13.6659 5.70548 16.5377 3.16899L13.5503 0C12.204 0.820905 10.4201 1.35814 8.5 1.35814C6.57993 1.35814 4.78913 0.820905 3.44278 0ZM8.5 5.20271L9.65219 8.3717H12.8604L10.1075 10.1826L11.2597 13.3446L8.5 11.5337L5.74026 13.3446L6.89245 10.1826L4.13271 8.3717H7.34781L8.5 5.20271Z" fill="white"/>
</svg>
